<svg width="223" height="147" viewBox="0 0 223 147" fill="none" xmlns="http://www.w3.org/2000/svg">
<path d="M17.66 58.4C16.66 58.4 16.1 57.7 15.98 56.3L15.14 45.56C15.06 44.32 14.9 43.44 14.66 42.92C14.46 42.36 13.96 41.88 13.16 41.48C12.36 41.04 12.08 40.46 12.32 39.74C12.76 38.5 13.62 37.94 14.9 38.06C15.58 38.14 16.28 38.28 17 38.48C17.76 38.64 18.5 38.82 19.22 39.02C20.22 39.02 21.38 39 22.7 38.96C24.02 38.92 25.34 38.88 26.66 38.84C28.02 38.76 29.2 38.7 30.2 38.66C31.2 38.62 31.86 38.58 32.18 38.54C32.22 38.54 32.26 38.54 32.3 38.54C33.46 38.46 34.5 38.36 35.42 38.24C36.34 38.08 37.18 37.86 37.94 37.58C37.94 37.58 37.96 37.58 38 37.58C38.32 37.46 38.54 37.4 38.66 37.4C38.82 37.36 39.08 37.38 39.44 37.46L43.7 38.42C44.22 38.54 44.4 38.98 44.24 39.74C44.16 40.1 44.06 40.6 43.94 41.24C43.82 41.88 43.7 42.54 43.58 43.22C43.5 43.86 43.44 44.38 43.4 44.78C43.24 46.14 43.08 47.48 42.92 48.8C42.76 50.12 42.6 51.24 42.44 52.16C42.84 52.44 43.24 52.78 43.64 53.18C44.08 53.58 44.3 53.84 44.3 53.96C44.3 54.48 44.12 55 43.76 55.52C43.44 56.04 43.04 56.34 42.56 56.42C41.76 56.38 40.66 56.34 39.26 56.3C37.86 56.3 36.3 56.3 34.58 56.3C32.86 56.3 31.1 56.32 29.3 56.36C27.54 56.4 25.9 56.44 24.38 56.48C22.86 56.52 21.6 56.56 20.6 56.6C20.28 57.12 19.86 57.54 19.34 57.86C18.82 58.22 18.26 58.4 17.66 58.4ZM18.56 35C15.96 35.04 13.78 34.62 12.02 33.74C10.26 32.86 8.92 31.72 8 30.32C7.12 28.92 6.68 27.52 6.68 26.12C6.68 24.64 7.06 23.2 7.82 21.8C8.58 20.36 9.82 19.18 11.54 18.26C13.26 17.3 15.54 16.8 18.38 16.76C20.22 16.72 22.06 16.98 23.9 17.54C25.74 18.06 27.26 18.96 28.46 20.24C29.7 21.52 30.32 23.28 30.32 25.52C30.32 27.04 29.88 28.52 29 29.96C28.16 31.4 26.86 32.58 25.1 33.5C23.38 34.42 21.2 34.92 18.56 35ZM40.34 35.9C39.66 35.9 39.2 35.48 38.96 34.64C38.76 33.72 38.64 32.72 38.6 31.64C38.56 30.52 38.54 29.6 38.54 28.88C38.54 28.72 38.54 28.6 38.54 28.52V9.5C38.54 8.38 38.5 7.54 38.42 6.98C38.34 6.38 38.12 5.9 37.76 5.54C37.44 5.18 36.9 4.74 36.14 4.22C35.74 3.98 35.44 3.7 35.24 3.38C35.08 3.06 35.1 2.7 35.3 2.3C35.62 1.62 36.04 1.18 36.56 0.979997C37.08 0.779998 37.66 0.739998 38.3 0.859999C39.22 1.02 40.16 1.34 41.12 1.82C42.08 2.26 42.88 2.7 43.52 3.14C44.24 3.62 44.6 4.12 44.6 4.64C44.52 5.16 44.42 5.88 44.3 6.8C44.18 7.72 44.12 8.64 44.12 9.56V19.82C45.68 19.66 47.08 19.42 48.32 19.1C49.6 18.74 50.5 18.48 51.02 18.32C51.46 18.16 51.82 18.14 52.1 18.26C52.38 18.34 52.6 18.5 52.76 18.74C53.08 19.14 53.4 19.7 53.72 20.42C54.04 21.14 54.2 21.64 54.2 21.92C54.2 22.32 53.94 22.72 53.42 23.12C52.94 23.52 52.56 23.72 52.28 23.72C51.04 23.52 49.7 23.4 48.26 23.36C46.86 23.28 45.48 23.24 44.12 23.24V28.22C44.12 29.22 44 30.32 43.76 31.52C43.56 32.68 43.18 33.7 42.62 34.58C42.06 35.42 41.3 35.86 40.34 35.9ZM21.14 52.7C22.62 52.7 24.34 52.7 26.3 52.7C28.26 52.66 30.26 52.6 32.3 52.52C34.34 52.44 36.14 52.36 37.7 52.28C37.74 51.48 37.76 50.48 37.76 49.28C37.8 48.08 37.82 46.9 37.82 45.74C37.86 44.54 37.86 43.62 37.82 42.98C37.82 42.62 37.74 42.4 37.58 42.32C37.46 42.2 37.28 42.14 37.04 42.14C36.68 42.14 35.9 42.16 34.7 42.2C33.5 42.24 32.06 42.28 30.38 42.32C28.74 42.36 27.08 42.42 25.4 42.5C23.72 42.54 22.22 42.6 20.9 42.68L21.14 52.7ZM6.02 15.74C5.26 15.9 4.72 15.96 4.4 15.92C4.08 15.88 3.7 15.66 3.26 15.26C2.98 15.02 2.6 14.64 2.12 14.12C1.64 13.6 1.3 13.16 1.1 12.8C1.02 12.44 1.18 12.04 1.58 11.6C1.98 11.12 2.34 10.88 2.66 10.88C3.3 11 4.18 11.1 5.3 11.18C6.42 11.26 7.66 11.32 9.02 11.36C10.38 11.36 11.72 11.36 13.04 11.36C14.4 11.36 15.62 11.34 16.7 11.3C20.86 11.18 24.26 10.94 26.9 10.58C29.54 10.22 31.36 9.92 32.36 9.68C33.12 9.48 33.66 9.62 33.98 10.1C34.3 10.62 34.54 11.16 34.7 11.72C34.9 12.28 35 12.66 35 12.86C35 13.18 34.76 13.56 34.28 14C33.84 14.44 33.48 14.64 33.2 14.6C32.16 14.52 30.74 14.48 28.94 14.48C27.18 14.44 25.28 14.44 23.24 14.48C21.2 14.48 19.3 14.54 17.54 14.66C16.5 14.7 15.28 14.78 13.88 14.9C12.48 14.98 11.08 15.1 9.68 15.26C8.32 15.38 7.1 15.54 6.02 15.74ZM18.44 31.1C20.4 31.02 21.92 30.44 23 29.36C24.12 28.28 24.68 26.9 24.68 25.22C24.68 24.46 24.48 23.68 24.08 22.88C23.68 22.04 23.04 21.34 22.16 20.78C21.32 20.22 20.2 19.94 18.8 19.94C16.48 19.94 14.78 20.54 13.7 21.74C12.66 22.9 12.14 24.26 12.14 25.82C12.14 27.34 12.7 28.62 13.82 29.66C14.98 30.66 16.52 31.14 18.44 31.1ZM16.1 7.82C15.34 7.7 14.46 7.5 13.46 7.22C12.46 6.94 11.5 6.6 10.58 6.2C9.66 5.76 8.94 5.32 8.42 4.88C8.22 4.52 8.26 4.02 8.54 3.38C8.82 2.7 9.24 2.34 9.8 2.3C11.32 2.58 12.88 2.8 14.48 2.96C16.12 3.12 17.68 3.2 19.16 3.2C20.44 3.2 21.68 3.16 22.88 3.08C24.08 3 25.06 2.92 25.82 2.84C26.46 2.88 26.98 3.1 27.38 3.5C27.82 3.86 28.04 4.2 28.04 4.52C28 4.84 27.82 5.3 27.5 5.9C27.18 6.46 26.78 6.88 26.3 7.16C25.62 7.4 24.66 7.6 23.42 7.76C22.18 7.88 20.9 7.96 19.58 8C18.26 8 17.1 7.94 16.1 7.82ZM90.7213 52.7C89.9613 52.7 89.5213 52.2 89.4013 51.2C89.3213 50.52 89.2413 49.74 89.1613 48.86C89.1213 47.94 89.0813 47.06 89.0413 46.22C89.0413 45.38 89.0413 44.72 89.0413 44.24V26.84C88.0813 26.92 87.3213 27.02 86.7613 27.14C86.2013 27.22 85.4013 27.4 84.3613 27.68C83.5613 27.88 82.8413 27.86 82.2013 27.62C82.0813 27.58 81.9013 27.52 81.6613 27.44C81.4213 27.36 81.2213 27.26 81.0613 27.14C79.9013 29.94 78.5813 32.74 77.1013 35.54C75.6613 38.3 73.9813 40.68 72.0613 42.68C71.3813 43.4 70.5413 43.88 69.5413 44.12C68.5813 44.32 67.9813 44.16 67.7413 43.64C67.4213 42.96 67.5813 42.2 68.2213 41.36C69.3813 39.88 70.5613 38.1 71.7613 36.02C72.9613 33.94 74.0813 31.7 75.1213 29.3C76.2013 26.86 77.1213 24.38 77.8813 21.86C78.6413 19.34 79.1413 16.94 79.3813 14.66C79.4213 14.22 79.2613 14 78.9013 14C78.3813 14 77.6413 14.02 76.6813 14.06C75.7213 14.1 74.8613 14.16 74.1013 14.24C73.3013 16.6 72.2413 19.12 70.9213 21.8C69.6413 24.48 68.1813 27.04 66.5413 29.48C64.9013 31.88 63.1413 33.9 61.2613 35.54C60.5813 36.14 59.7813 36.54 58.8613 36.74C57.9813 36.9 57.3813 36.76 57.0613 36.32C56.7013 35.8 56.8813 35.14 57.6013 34.34C59.2413 32.58 60.7813 30.54 62.2213 28.22C63.7013 25.9 64.9613 23.52 66.0013 21.08C67.0813 18.6 67.8213 16.28 68.2213 14.12C68.3013 13.84 68.2813 13.68 68.1613 13.64C68.0813 13.56 67.9413 13.52 67.7413 13.52C67.1013 13.56 66.4213 13.64 65.7013 13.76C64.9813 13.84 64.2213 14 63.4213 14.24C63.3413 14.24 63.2413 14.26 63.1213 14.3C62.6013 14.46 62.2213 14.54 61.9813 14.54C61.7813 14.54 61.5013 14.38 61.1413 14.06C60.8613 13.82 60.4613 13.44 59.9413 12.92C59.4213 12.4 59.0413 11.96 58.8013 11.6C58.6813 11.24 58.8013 10.82 59.1613 10.34C59.5613 9.86 59.9213 9.62 60.2413 9.62C62.6813 9.9 64.6613 10 66.1813 9.92C67.7413 9.8 69.1813 9.48 70.5013 8.96C70.9813 8.8 71.4413 8.84 71.8813 9.08C72.2013 9.28 72.5013 9.48 72.7813 9.68C73.1013 9.84 73.4013 10 73.6813 10.16C74.9613 10.2 76.2013 10.16 77.4013 10.04C78.6013 9.92 79.5413 9.66 80.2213 9.26C80.4213 9.14 80.6013 9.08 80.7613 9.08C80.9613 9.08 81.1613 9.12 81.3613 9.2L85.1413 10.4C85.4613 10.48 85.6813 10.64 85.8013 10.88C85.9613 11.08 85.9813 11.42 85.8613 11.9L84.6013 16.7C84.3213 17.78 84.0013 18.88 83.6413 20C83.3213 21.08 82.9413 22.2 82.5013 23.36C83.5013 23.4 84.5613 23.42 85.6813 23.42C86.8413 23.38 87.9613 23.34 89.0413 23.3V11.66C89.0413 10.1 88.9413 9 88.7413 8.36C88.5413 7.68 88.0413 7.06 87.2413 6.5C86.9213 6.26 86.6213 6.04 86.3413 5.84C86.1013 5.64 85.9813 5.38 85.9813 5.06C85.9813 4.66 86.2013 4.2 86.6413 3.68C87.0813 3.16 87.6013 2.9 88.2013 2.9C88.6413 2.9 89.2013 3.04 89.8813 3.32C90.5613 3.6 91.2413 3.92 91.9213 4.28C92.6013 4.64 93.1013 4.96 93.4213 5.24C93.7813 5.52 94.0813 5.8 94.3213 6.08C94.5613 6.36 94.6813 6.62 94.6813 6.86C94.5613 7.38 94.4613 8.08 94.3813 8.96C94.3413 9.84 94.3213 10.74 94.3213 11.66V43.94C94.3213 44.7 94.2613 45.58 94.1413 46.58C94.0213 47.54 93.8213 48.5 93.5413 49.46C93.3013 50.38 92.9413 51.16 92.4613 51.8C92.0213 52.4 91.4413 52.7 90.7213 52.7ZM100.081 54.8C99.4013 54.8 98.9613 54.3 98.7613 53.3C98.6413 52.58 98.5413 51.74 98.4613 50.78C98.4213 49.78 98.3813 48.84 98.3413 47.96C98.3413 47.04 98.3413 46.34 98.3413 45.86V9.56C98.3413 8.44 98.2813 7.6 98.1613 7.04C98.0813 6.48 97.8813 6.02 97.5613 5.66C97.2813 5.26 96.8013 4.82 96.1213 4.34C95.8413 4.14 95.6013 3.94 95.4013 3.74C95.2013 3.5 95.1013 3.24 95.1013 2.96C95.1013 2.56 95.3413 2.1 95.8213 1.58C96.3413 1.06 96.9213 0.799996 97.5613 0.799996C98.0413 0.799996 98.6213 0.939997 99.3013 1.22C100.021 1.5 100.721 1.82 101.401 2.18C102.081 2.54 102.621 2.86 103.021 3.14C103.861 3.74 104.281 4.26 104.281 4.7C104.201 5.22 104.101 5.94 103.981 6.86C103.861 7.78 103.801 8.7 103.801 9.62L103.741 45.56C103.741 46.32 103.681 47.22 103.561 48.26C103.481 49.3 103.301 50.32 103.021 51.32C102.781 52.32 102.421 53.14 101.941 53.78C101.461 54.46 100.841 54.8 100.081 54.8ZM130.437 42.26C127.757 42.34 125.457 41.88 123.537 40.88C121.657 39.84 120.217 38.5 119.217 36.86C118.217 35.18 117.717 33.44 117.717 31.64C117.717 30 118.177 28.4 119.097 26.84C120.017 25.28 121.417 23.98 123.297 22.94C125.177 21.86 127.537 21.28 130.377 21.2C132.697 21.2 134.797 21.58 136.677 22.34C138.557 23.1 140.057 24.22 141.177 25.7C142.297 27.18 142.857 29.02 142.857 31.22C142.857 32.98 142.397 34.7 141.477 36.38C140.557 38.02 139.177 39.38 137.337 40.46C135.497 41.54 133.197 42.14 130.437 42.26ZM151.497 54.8C150.817 54.8 150.377 54.3 150.177 53.3C150.057 52.62 149.957 51.8 149.877 50.84C149.837 49.88 149.817 48.94 149.817 48.02C149.817 47.1 149.817 46.38 149.817 45.86V10.4C149.817 10.32 149.817 10.2 149.817 10.04C149.817 8.64 149.697 7.54 149.457 6.74C149.257 5.94 148.517 5.16 147.237 4.4C146.997 4.24 146.777 4.06 146.577 3.86C146.377 3.66 146.277 3.42 146.277 3.14C146.277 2.7 146.497 2.2 146.937 1.64C147.377 1.08 147.917 0.799996 148.557 0.799996C148.997 0.799996 149.597 0.919997 150.357 1.16C151.117 1.36 151.897 1.64 152.697 2C153.497 2.32 154.177 2.66 154.737 3.02C155.497 3.5 155.877 3.98 155.877 4.46C155.837 4.98 155.737 5.84 155.577 7.04C155.457 8.2 155.397 9.32 155.397 10.4V26.18C157.277 26.14 158.957 25.92 160.437 25.52C161.917 25.12 162.937 24.84 163.497 24.68C163.937 24.52 164.297 24.5 164.577 24.62C164.857 24.7 165.077 24.86 165.237 25.1C165.557 25.5 165.877 26.06 166.197 26.78C166.517 27.5 166.677 28 166.677 28.28C166.677 28.68 166.417 29.08 165.897 29.48C165.417 29.84 165.037 30.02 164.757 30.02C163.277 29.82 161.697 29.68 160.017 29.6C158.377 29.52 156.817 29.5 155.337 29.54V45.56C155.337 46.32 155.277 47.22 155.157 48.26C155.037 49.3 154.817 50.32 154.497 51.32C154.217 52.32 153.817 53.14 153.297 53.78C152.817 54.46 152.217 54.8 151.497 54.8ZM130.317 38.3C131.917 38.22 133.217 37.82 134.217 37.1C135.257 36.38 136.017 35.48 136.497 34.4C136.977 33.28 137.217 32.18 137.217 31.1C137.217 30.06 136.997 29.08 136.557 28.16C136.117 27.2 135.397 26.4 134.397 25.76C133.437 25.12 132.137 24.8 130.497 24.8C128.057 24.76 126.237 25.44 125.037 26.84C123.877 28.24 123.297 29.82 123.297 31.58C123.297 33.66 123.937 35.3 125.217 36.5C126.537 37.7 128.237 38.3 130.317 38.3ZM117.117 19.34C116.357 19.46 115.857 19.5 115.617 19.46C115.377 19.42 115.017 19.22 114.537 18.86C114.257 18.66 113.817 18.26 113.217 17.66C112.657 17.02 112.277 16.52 112.077 16.16C111.997 15.8 112.157 15.36 112.557 14.84C112.957 14.32 113.317 14.06 113.637 14.06C114.277 14.18 115.197 14.3 116.397 14.42C117.637 14.5 118.997 14.56 120.477 14.6C121.997 14.6 123.477 14.6 124.917 14.6C126.357 14.6 127.617 14.58 128.697 14.54C132.857 14.38 136.237 14.12 138.837 13.76C141.477 13.36 143.257 13.04 144.177 12.8C144.617 12.64 144.937 12.62 145.137 12.74C145.377 12.86 145.577 13.04 145.737 13.28C146.057 13.8 146.317 14.42 146.517 15.14C146.717 15.86 146.817 16.32 146.817 16.52C146.817 16.84 146.577 17.2 146.097 17.6C145.657 17.96 145.297 18.14 145.017 18.14C144.377 18.06 143.417 18.02 142.137 18.02C140.897 17.98 139.517 17.96 137.997 17.96C136.477 17.96 134.957 17.98 133.437 18.02C131.917 18.02 130.577 18.06 129.417 18.14C128.377 18.18 127.137 18.26 125.697 18.38C124.257 18.5 122.797 18.64 121.317 18.8C119.837 18.96 118.437 19.14 117.117 19.34ZM127.137 10.16C126.377 10.04 125.497 9.84 124.497 9.56C123.537 9.24 122.597 8.86 121.677 8.42C120.797 7.98 120.097 7.54 119.577 7.1C119.417 6.9 119.377 6.6 119.457 6.2C119.537 5.8 119.717 5.42 119.997 5.06C120.277 4.7 120.597 4.52 120.957 4.52C122.477 4.8 124.117 5.02 125.877 5.18C127.637 5.34 129.257 5.42 130.737 5.42C132.017 5.42 133.357 5.4 134.757 5.36C136.157 5.28 137.237 5.2 137.997 5.12C138.637 5.16 139.157 5.36 139.557 5.72C139.997 6.08 140.217 6.42 140.217 6.74C140.177 7.06 139.997 7.54 139.677 8.18C139.357 8.78 138.957 9.22 138.477 9.5C137.757 9.74 136.697 9.94 135.297 10.1C133.897 10.22 132.437 10.3 130.917 10.34C129.437 10.34 128.177 10.28 127.137 10.16ZM184.028 22.22C183.108 22.22 182.288 21.8 181.568 20.96C180.888 20.12 180.548 18.66 180.548 16.58V12.68C180.548 11.52 180.508 10.6 180.428 9.92C180.388 9.24 180.208 8.68 179.888 8.24C179.608 7.76 179.108 7.3 178.388 6.86C177.668 6.38 177.488 5.74 177.848 4.94C178.168 4.3 178.588 3.88 179.108 3.68C179.668 3.44 180.228 3.4 180.788 3.56C181.468 3.72 182.228 4 183.068 4.4C183.908 4.76 184.628 5.16 185.228 5.6C185.668 5.92 186.048 6.24 186.368 6.56C186.728 6.88 186.888 7.2 186.848 7.52C186.688 8.2 186.568 9 186.488 9.92C186.448 10.8 186.428 11.62 186.428 12.38V16.04C186.428 17.16 186.528 17.84 186.728 18.08C186.968 18.32 187.488 18.44 188.288 18.44C189.808 18.44 191.388 18.42 193.028 18.38C194.668 18.3 196.848 18.18 199.568 18.02C202.408 17.86 204.708 17.62 206.468 17.3C208.268 16.94 209.468 16.66 210.068 16.46C210.508 16.3 210.868 16.28 211.148 16.4C211.428 16.52 211.648 16.72 211.808 17C212.128 17.4 212.448 17.94 212.768 18.62C213.088 19.26 213.248 19.68 213.248 19.88C213.248 20.2 213.008 20.6 212.528 21.08C212.088 21.56 211.728 21.8 211.448 21.8C210.928 21.76 210.088 21.74 208.928 21.74C207.808 21.7 206.528 21.68 205.088 21.68C203.648 21.68 202.168 21.7 200.648 21.74C200.288 21.74 199.588 21.76 198.548 21.8C197.548 21.84 196.348 21.88 194.948 21.92C193.588 21.96 192.188 22 190.748 22.04C189.348 22.08 188.048 22.12 186.848 22.16C185.648 22.2 184.708 22.22 184.028 22.22ZM175.028 35.42C174.148 35.62 173.508 35.68 173.108 35.6C172.748 35.52 172.348 35.32 171.908 35C171.668 34.8 171.308 34.5 170.828 34.1C170.388 33.7 169.948 33.3 169.508 32.9C169.108 32.5 168.868 32.2 168.788 32C168.708 31.68 168.888 31.22 169.328 30.62C169.768 30.02 170.228 29.74 170.708 29.78C171.988 30.06 173.508 30.28 175.268 30.44C177.068 30.56 178.968 30.64 180.968 30.68C182.888 30.68 185.008 30.68 187.328 30.68C189.648 30.64 191.988 30.58 194.348 30.5C196.748 30.42 199.008 30.34 201.128 30.26C203.248 30.18 205.068 30.1 206.588 30.02C209.068 29.86 211.368 29.66 213.488 29.42C215.648 29.18 217.348 28.9 218.588 28.58C219.388 28.38 219.928 28.32 220.208 28.4C220.528 28.44 220.828 28.68 221.108 29.12C221.388 29.52 221.688 30.08 222.008 30.8C222.328 31.48 222.488 31.96 222.488 32.24C222.448 32.68 222.148 33.12 221.588 33.56C221.068 33.96 220.688 34.16 220.448 34.16C219.328 34.04 218.228 33.96 217.148 33.92C216.108 33.84 214.868 33.78 213.428 33.74C212.028 33.7 210.208 33.68 207.968 33.68C205.688 33.68 203.108 33.72 200.228 33.8C197.348 33.84 194.468 33.92 191.588 34.04C188.708 34.16 186.108 34.28 183.788 34.4C182.068 34.48 180.488 34.62 179.048 34.82C177.608 34.98 176.268 35.18 175.028 35.42ZM186.848 56.6C186.248 56.56 185.568 56.36 184.808 56C184.088 55.68 183.468 55.12 182.948 54.32C182.428 53.56 182.168 52.52 182.168 51.2V47.84C182.168 46.32 182.088 45.28 181.928 44.72C181.768 44.12 181.188 43.56 180.188 43.04C179.428 42.64 179.248 42.02 179.648 41.18C179.968 40.5 180.388 40.08 180.908 39.92C181.468 39.76 182.028 39.72 182.588 39.8C183.268 39.92 184.008 40.14 184.808 40.46C185.608 40.74 186.308 41.06 186.908 41.42C187.348 41.7 187.708 41.98 187.988 42.26C188.308 42.5 188.468 42.78 188.468 43.1C188.308 43.78 188.188 44.5 188.108 45.26C188.028 46.02 187.988 46.78 187.988 47.54V50.6C187.988 51.48 188.068 52.04 188.228 52.28C188.428 52.52 188.828 52.66 189.428 52.7C190.948 52.74 192.728 52.76 194.768 52.76C196.848 52.76 199.048 52.68 201.368 52.52C203.888 52.36 206.088 52.1 207.968 51.74C209.848 51.38 211.088 51.12 211.688 50.96C212.128 50.8 212.488 50.78 212.768 50.9C213.048 51.02 213.268 51.2 213.428 51.44C213.748 51.84 214.068 52.4 214.388 53.12C214.708 53.84 214.868 54.3 214.868 54.5C214.868 54.86 214.628 55.28 214.148 55.76C213.708 56.24 213.348 56.48 213.068 56.48C212.548 56.44 211.708 56.4 210.548 56.36C209.388 56.32 208.068 56.3 206.588 56.3C205.148 56.3 203.668 56.32 202.148 56.36C201.828 56.36 201.428 56.36 200.948 56.36C200.508 56.4 200.028 56.42 199.508 56.42C198.188 56.46 196.708 56.5 195.068 56.54C193.428 56.58 191.868 56.6 190.388 56.6C188.908 56.64 187.728 56.64 186.848 56.6ZM17.06 124.76C14.42 124.8 12.02 124.3 9.86 123.26C7.74 122.22 6.04 120.76 4.76 118.88C3.52 117 2.9 114.82 2.9 112.34C2.9 109.98 3.52 107.86 4.76 105.98C6.04 104.06 7.74 102.52 9.86 101.36C12.02 100.2 14.42 99.6 17.06 99.56C19.66 99.52 22.02 99.98 24.14 100.94C26.26 101.86 27.94 103.24 29.18 105.08C30.46 106.92 31.1 109.16 31.1 111.8C31.1 114.24 30.46 116.44 29.18 118.4C27.94 120.32 26.26 121.84 24.14 122.96C22.02 124.08 19.66 124.68 17.06 124.76ZM40.82 144.8C40.14 144.8 39.7 144.3 39.5 143.3C39.38 142.62 39.28 141.8 39.2 140.84C39.16 139.88 39.14 138.94 39.14 138.02C39.14 137.1 39.14 136.38 39.14 135.86V100.4C39.14 100.32 39.14 100.2 39.14 100.04C39.14 98.64 39.02 97.54 38.78 96.74C38.58 95.94 37.84 95.16 36.56 94.4C36.32 94.24 36.1 94.06 35.9 93.86C35.7 93.66 35.6 93.42 35.6 93.14C35.6 92.7 35.82 92.2 36.26 91.64C36.7 91.08 37.24 90.8 37.88 90.8C38.32 90.8 38.92 90.92 39.68 91.16C40.44 91.36 41.22 91.64 42.02 92C42.82 92.32 43.5 92.66 44.06 93.02C44.82 93.5 45.2 93.98 45.2 94.46C45.16 94.98 45.06 95.84 44.9 97.04C44.78 98.2 44.72 99.32 44.72 100.4L44.66 135.56C44.66 136.32 44.6 137.22 44.48 138.26C44.36 139.3 44.14 140.32 43.82 141.32C43.54 142.32 43.14 143.14 42.62 143.78C42.14 144.46 41.54 144.8 40.82 144.8ZM17 120.32C19.36 120.2 21.3 119.36 22.82 117.8C24.34 116.2 25.1 114.22 25.1 111.86C25.1 109.46 24.34 107.5 22.82 105.98C21.34 104.46 19.42 103.7 17.06 103.7C14.66 103.7 12.68 104.5 11.12 106.1C9.6 107.7 8.84 109.76 8.84 112.28C8.84 114.72 9.6 116.7 11.12 118.22C12.68 119.7 14.64 120.4 17 120.32ZM70.347 146.9C69.427 146.86 68.547 146.42 67.707 145.58C66.907 144.78 66.507 143.56 66.507 141.92V138.56C66.507 138.36 66.467 138.22 66.387 138.14C66.347 138.02 66.207 137.88 65.967 137.72C65.447 137.4 65.007 137.1 64.647 136.82C64.327 136.54 64.147 136.3 64.107 136.1C64.147 135.78 64.307 135.36 64.587 134.84C64.867 134.32 65.207 134.04 65.607 134C66.527 134.16 67.607 134.28 68.847 134.36C70.127 134.44 71.147 134.48 71.907 134.48C72.667 134.48 73.727 134.48 75.087 134.48C76.447 134.48 77.947 134.46 79.587 134.42C81.267 134.34 82.947 134.28 84.627 134.24C86.307 134.16 87.827 134.06 89.187 133.94C89.227 133.3 89.267 132.64 89.307 131.96C89.347 131.28 89.367 130.62 89.367 129.98C89.367 129.66 89.307 129.48 89.187 129.44C89.067 129.36 88.887 129.32 88.647 129.32C88.207 129.32 87.427 129.34 86.307 129.38C85.227 129.42 83.987 129.48 82.587 129.56C81.187 129.64 79.827 129.72 78.507 129.8C77.227 129.84 76.187 129.88 75.387 129.92C74.987 129.92 74.427 129.96 73.707 130.04C72.987 130.08 72.247 130.14 71.487 130.22C70.767 130.3 70.147 130.4 69.627 130.52C68.827 130.68 68.247 130.72 67.887 130.64C67.527 130.56 67.167 130.38 66.807 130.1C66.447 129.78 65.987 129.36 65.427 128.84C64.907 128.32 64.607 127.98 64.527 127.82C64.447 127.46 64.587 127.04 64.947 126.56C65.307 126.08 65.707 125.8 66.147 125.72C67.707 126.04 69.447 126.24 71.367 126.32C73.327 126.36 75.447 126.36 77.727 126.32C78.447 126.32 79.367 126.3 80.487 126.26C81.607 126.18 82.767 126.1 83.967 126.02C85.207 125.9 86.327 125.78 87.327 125.66C88.327 125.5 89.067 125.34 89.547 125.18C89.867 125.06 90.087 125 90.207 125C90.367 124.96 90.587 124.98 90.867 125.06L95.187 125.96C95.827 126.08 96.027 126.54 95.787 127.34C95.627 127.82 95.387 128.68 95.067 129.92C94.747 131.16 94.447 132.34 94.167 133.46C94.607 133.7 95.027 133.98 95.427 134.3C95.827 134.62 96.027 134.88 96.027 135.08C96.027 135.56 95.847 136.08 95.487 136.64C95.167 137.2 94.767 137.56 94.287 137.72C93.007 137.68 91.407 137.66 89.487 137.66C87.607 137.66 85.607 137.68 83.487 137.72C81.407 137.76 79.367 137.82 77.367 137.9C75.407 137.98 73.707 138.06 72.267 138.14V140.96C72.267 141.6 72.327 142.12 72.447 142.52C72.607 142.88 72.927 143.08 73.407 143.12C74.927 143.2 76.727 143.22 78.807 143.18C80.887 143.18 82.847 143.16 84.687 143.12C87.527 143.04 89.907 142.84 91.827 142.52C93.787 142.2 95.087 141.92 95.727 141.68C96.167 141.48 96.527 141.46 96.807 141.62C97.087 141.74 97.307 141.92 97.467 142.16C97.787 142.56 98.107 143.04 98.427 143.6C98.747 144.2 98.907 144.62 98.907 144.86C98.907 145.18 98.667 145.58 98.187 146.06C97.747 146.54 97.387 146.78 97.107 146.78C96.547 146.74 95.647 146.7 94.407 146.66C93.167 146.66 91.787 146.66 90.267 146.66C88.747 146.66 87.227 146.68 85.707 146.72C85.227 146.72 84.327 146.74 83.007 146.78C81.727 146.82 80.247 146.84 78.567 146.84C76.927 146.88 75.347 146.9 73.827 146.9C72.347 146.94 71.187 146.94 70.347 146.9ZM67.947 111.2C67.027 111.2 66.267 110.76 65.667 109.88C65.067 109 64.767 107.54 64.767 105.5V101.06C64.767 99.78 64.647 98.92 64.407 98.48C64.207 98 63.647 97.5 62.727 96.98C61.847 96.5 61.547 95.9 61.827 95.18C62.147 94.38 62.567 93.9 63.087 93.74C63.647 93.54 64.227 93.48 64.827 93.56C65.387 93.64 66.067 93.78 66.867 93.98C67.667 94.14 68.387 94.32 69.027 94.52C70.787 94.56 72.767 94.54 74.967 94.46C77.167 94.34 79.607 94.2 82.287 94.04C85.127 93.84 87.287 93.62 88.767 93.38C90.287 93.14 91.347 92.92 91.947 92.72C92.387 92.56 92.747 92.54 93.027 92.66C93.307 92.78 93.527 92.96 93.687 93.2C94.007 93.6 94.347 94.12 94.707 94.76C95.067 95.36 95.247 95.76 95.247 95.96C95.247 96.28 95.007 96.68 94.527 97.16C94.087 97.64 93.727 97.88 93.447 97.88C92.687 97.8 91.367 97.76 89.487 97.76C87.647 97.72 85.607 97.72 83.367 97.76C80.687 97.8 78.227 97.88 75.987 98C73.787 98.08 71.987 98.16 70.587 98.24V104.96C70.587 106.08 70.687 106.76 70.887 107C71.127 107.24 71.647 107.36 72.447 107.36C73.967 107.36 75.467 107.34 76.947 107.3C78.427 107.26 80.327 107.18 82.647 107.06C85.487 106.9 87.727 106.7 89.367 106.46C91.007 106.18 92.127 105.96 92.727 105.8C93.167 105.64 93.527 105.62 93.807 105.74C94.087 105.86 94.307 106.04 94.467 106.28C94.787 106.68 95.107 107.18 95.427 107.78C95.747 108.38 95.907 108.78 95.907 108.98C95.907 109.3 95.667 109.7 95.187 110.18C94.747 110.66 94.387 110.9 94.107 110.9C93.587 110.86 92.727 110.84 91.527 110.84C90.367 110.8 89.027 110.78 87.507 110.78C86.027 110.74 84.527 110.74 83.007 110.78C82.527 110.78 81.647 110.8 80.367 110.84C79.087 110.88 77.647 110.94 76.047 111.02C74.447 111.06 72.907 111.1 71.427 111.14C69.947 111.18 68.787 111.2 67.947 111.2ZM59.247 121.82C58.367 122.02 57.727 122.08 57.327 122C56.967 121.92 56.567 121.72 56.127 121.4C55.887 121.2 55.527 120.9 55.047 120.5C54.607 120.1 54.167 119.7 53.727 119.3C53.327 118.9 53.087 118.6 53.007 118.4C52.927 118.08 53.107 117.62 53.547 117.02C53.987 116.42 54.447 116.14 54.927 116.18C56.207 116.46 57.727 116.68 59.487 116.84C61.287 116.96 63.187 117.04 65.187 117.08C67.107 117.08 69.227 117.08 71.547 117.08C73.867 117.04 76.207 116.98 78.567 116.9C80.967 116.82 83.227 116.74 85.347 116.66C87.467 116.58 89.287 116.5 90.807 116.42C93.287 116.26 95.587 116.06 97.707 115.82C99.867 115.58 101.567 115.3 102.807 114.98C103.607 114.78 104.147 114.72 104.427 114.8C104.747 114.84 105.047 115.08 105.327 115.52C105.607 115.92 105.907 116.48 106.227 117.2C106.547 117.88 106.707 118.36 106.707 118.64C106.667 119.08 106.367 119.52 105.807 119.96C105.287 120.36 104.907 120.56 104.667 120.56C103.547 120.44 102.447 120.36 101.367 120.32C100.327 120.24 99.087 120.18 97.647 120.14C96.247 120.1 94.427 120.08 92.187 120.08C89.907 120.08 87.327 120.12 84.447 120.2C81.567 120.24 78.687 120.32 75.807 120.44C72.927 120.56 70.327 120.68 68.007 120.8C66.287 120.88 64.707 121.02 63.267 121.22C61.827 121.38 60.487 121.58 59.247 121.82Z" fill="#111111"/>
</svg>
